<svg id="chat" width="15" height="15" viewBox="0 0 15 15" fill="none" xmlns="http://www.w3.org/2000/svg">
<path d="M7.51663 0C3.28185 0 0 3.09512 0 7.27567C0 9.46228 0.898488 11.3519 2.36099 12.6572C2.61351 12.8843 2.56149 13.0159 2.60444 14.4183C2.60782 14.5165 2.63518 14.6124 2.68414 14.6976C2.7331 14.7829 2.80216 14.8548 2.88531 14.9072C2.96846 14.9596 3.06317 14.9909 3.16118 14.9983C3.25918 15.0057 3.35751 14.989 3.44758 14.9497C5.04768 14.245 5.06825 14.1893 5.33952 14.2631C9.9753 15.5391 15 12.5722 15 7.27567C15 3.09512 11.7517 0 7.51663 0ZM12.0299 5.59898L9.82228 9.09421C9.73891 9.22565 9.6293 9.33844 9.50031 9.42553C9.37132 9.51262 9.22573 9.57213 9.07267 9.60032C8.91961 9.62852 8.76237 9.62479 8.61082 9.58938C8.45926 9.55397 8.31666 9.48763 8.19194 9.39453L6.43548 8.07985C6.35696 8.02095 6.26146 7.98912 6.16331 7.98912C6.06515 7.98912 5.96965 8.02095 5.89113 8.07985L3.52107 9.87752C3.20474 10.1174 2.79042 9.7384 3.00363 9.40361L5.21129 5.90837C5.29463 5.7769 5.40423 5.66407 5.53321 5.57696C5.6622 5.48984 5.8078 5.43032 5.96088 5.40212C6.11395 5.37392 6.2712 5.37766 6.42276 5.4131C6.57432 5.44853 6.71693 5.5149 6.84163 5.60805L8.59748 6.92243C8.676 6.98132 8.77151 7.01316 8.86966 7.01316C8.96781 7.01316 9.06331 6.98132 9.14183 6.92243L11.5131 5.12657C11.8288 4.88523 12.2431 5.26388 12.0299 5.59898Z" fill="currentColor" />
</svg>
